<svg width="20" height="20" viewBox="0 0 20 20" fill="none" xmlns="http://www.w3.org/2000/svg">
<path d="M4.05 16.6176C3.83333 16.6176 3.65417 16.5495 3.5125 16.4134C3.37083 16.2773 3.3 16.1051 3.3 15.897V9.1713C3.3 8.97914 3.375 8.815 3.525 8.67889C3.675 8.54277 3.85 8.47472 4.05 8.47472C4.26667 8.47472 4.44583 8.54277 4.5875 8.67889C4.72917 8.815 4.8 8.98715 4.8 9.19532V15.921C4.8 16.1131 4.725 16.2773 4.575 16.4134C4.425 16.5495 4.25 16.6176 4.05 16.6176ZM10.1 16.6176C9.88333 16.6176 9.70417 16.5495 9.5625 16.4134C9.42083 16.2773 9.35 16.1051 9.35 15.897V9.1713C9.35 8.97914 9.425 8.815 9.575 8.67889C9.725 8.54277 9.9 8.47472 10.1 8.47472C10.3167 8.47472 10.4958 8.54277 10.6375 8.67889C10.7792 8.815 10.85 8.98715 10.85 9.19532V15.921C10.85 16.1131 10.775 16.2773 10.625 16.4134C10.475 16.5495 10.3 16.6176 10.1 16.6176ZM0.725 19.5C0.525 19.5 0.354167 19.4279 0.2125 19.2838C0.0708334 19.1397 0 18.9716 0 18.7794C0 18.5712 0.0708334 18.3991 0.2125 18.263C0.354167 18.1268 0.533333 18.0588 0.75 18.0588H19.275C19.475 18.0588 19.6458 18.1308 19.7875 18.275C19.9292 18.4191 20 18.5872 20 18.7794C20 18.9876 19.9292 19.1597 19.7875 19.2958C19.6458 19.4319 19.4667 19.5 19.25 19.5H0.725ZM15.95 16.6176C15.7333 16.6176 15.5542 16.5495 15.4125 16.4134C15.2708 16.2773 15.2 16.1051 15.2 15.897V9.1713C15.2 8.97914 15.275 8.815 15.425 8.67889C15.575 8.54277 15.75 8.47472 15.95 8.47472C16.1667 8.47472 16.3458 8.54277 16.4875 8.67889C16.6292 8.815 16.7 8.98715 16.7 9.19532V15.921C16.7 16.1131 16.625 16.2773 16.475 16.4134C16.325 16.5495 16.15 16.6176 15.95 16.6176ZM10.75 0.692162L19.45 5.44817C19.6167 5.52823 19.75 5.64433 19.85 5.79646C19.95 5.94859 20 6.11273 20 6.28887C20 6.51306 19.9083 6.69321 19.725 6.82933C19.5417 6.96544 19.3333 7.0335 19.1 7.0335H0.9C0.666667 7.0335 0.458333 6.96544 0.275 6.82933C0.0916668 6.69321 0 6.51306 0 6.28887C0 6.11273 0.0541666 5.95259 0.1625 5.80847C0.270833 5.66435 0.408333 5.54425 0.575 5.44817L9.25 0.692162C9.48333 0.564054 9.73333 0.5 10 0.5C10.2667 0.5 10.5167 0.564054 10.75 0.692162ZM3.35 5.59229H16.65H3.35ZM3.35 5.59229H16.65L10 1.94121L3.35 5.59229Z" fill="#141414"/>
</svg>
