<svg width="18" height="18" viewBox="0 0 18 18" fill="none" xmlns="http://www.w3.org/2000/svg">
<path fill-rule="evenodd" clip-rule="evenodd" d="M5.39979 1.74902C5.06823 1.74902 4.75024 1.88074 4.51579 2.11519C4.28134 2.34964 4.14963 2.66762 4.14963 2.99919C4.14963 3.33075 4.28134 3.64874 4.51579 3.88319C4.7484 4.1158 5.06324 4.24728 5.39199 4.24933H7.99556C7.89353 3.97441 7.76075 3.66588 7.59286 3.36063C7.08672 2.44036 6.38283 1.74902 5.39979 1.74902ZM2.64963 2.99919C2.64963 3.43787 2.75444 3.86574 2.95019 4.24933H0.99939C0.585176 4.24933 0.24939 4.58512 0.24939 4.99933V8.99966C0.24939 9.41387 0.585176 9.74966 0.99939 9.74966H1.84952V17.0003C1.84952 17.4145 2.1853 17.7503 2.59952 17.7503H15.4006C15.8148 17.7503 16.1506 17.4145 16.1506 17.0003V9.74966H17.0007C17.4149 9.74966 17.7507 9.41387 17.7507 8.99966V4.99933C17.7507 4.58512 17.4149 4.24933 17.0007 4.24933H15.0499C15.2457 3.86574 15.3505 3.43787 15.3505 2.99919C15.3505 2.2698 15.0607 1.57028 14.545 1.05453C14.0292 0.538772 13.3297 0.249023 12.6003 0.249023C10.7831 0.249023 9.68688 1.55785 9.09293 2.63775C9.06087 2.69603 9.02993 2.75424 9.00006 2.81221C8.97019 2.75424 8.93924 2.69603 8.90719 2.63775C8.31324 1.55785 7.21698 0.249023 5.39979 0.249023C4.6704 0.249023 3.97089 0.538772 3.45513 1.05453C2.93938 1.57028 2.64963 2.2698 2.64963 2.99919ZM12.6081 4.24933H10.0046C10.1066 3.97441 10.2394 3.66588 10.4073 3.36063C10.9134 2.44036 11.6173 1.74902 12.6003 1.74902C12.9319 1.74902 13.2499 1.88074 13.4843 2.11519C13.7188 2.34964 13.8505 2.66762 13.8505 2.99919C13.8505 3.33075 13.7188 3.64874 13.4843 3.88319C13.2517 4.1158 12.9369 4.24728 12.6081 4.24933ZM9.75003 5.74935V8.24966H16.2507V5.74933H12.6119C12.608 5.74935 12.6042 5.74935 12.6003 5.74935H9.75003ZM1.74939 5.74933H5.38822L5.39979 5.74935H8.25003V8.24966H1.74939V5.74933ZM8.25003 9.74966H3.34952V16.2503H8.25003V9.74966ZM9.75003 16.2503V9.74966H14.6506V16.2503H9.75003Z" fill="#A5A8AC"/>
</svg>
