<svg width="25" height="26" viewBox="0 0 25 26" fill="none" xmlns="http://www.w3.org/2000/svg">
<path d="M12.0084 9.49934H18.1684C18.4519 9.49934 18.7284 9.52646 18.9961 9.57896V7.31533C18.9961 6.10783 19.9744 5.12784 21.181 5.12784H22.1908C22.3623 5.12784 22.5023 4.98783 22.5023 4.81633V3.79871C22.5023 3.56421 22.6921 3.37433 22.9258 3.37433C23.6573 3.37433 24.2496 3.96758 24.2496 4.69908V6.43946C24.2496 7.64696 23.2714 8.62696 22.0648 8.62696H21.0559C21.015 8.62696 20.9745 8.63502 20.9367 8.65067C20.8989 8.66633 20.8646 8.68927 20.8356 8.7182C20.8067 8.74712 20.7838 8.78146 20.7681 8.81925C20.7525 8.85705 20.7444 8.89755 20.7444 8.93846V10.3568C21.2801 10.7578 21.7149 11.2782 22.0141 11.8767C22.3134 12.4751 22.4688 13.1352 22.4681 13.8043V20.0868C22.4681 20.5969 22.2947 21.0918 21.9764 21.4903L19.1466 25.0323C19.0927 25.1001 19.0241 25.1548 18.9461 25.1923C18.8681 25.2299 18.7826 25.2494 18.696 25.2493H17.6311C17.5934 25.2494 17.5565 25.2389 17.5244 25.2191C17.4923 25.1993 17.4664 25.171 17.4495 25.1373C17.4326 25.1036 17.4254 25.0659 17.4287 25.0283C17.4321 24.9908 17.4458 24.9549 17.4684 24.9247L19.4275 22.3093C19.7617 21.8638 19.9052 21.3037 19.8264 20.7523C19.7476 20.201 19.4531 19.7035 19.0075 19.3693L16.8095 17.7182C16.5123 17.4949 16.1505 17.3742 15.7788 17.3743H8.77527C8.18385 17.375 7.59861 17.2541 7.05589 17.0191C7.01395 17.0011 6.96757 16.9962 6.92279 17.0049C6.87801 17.0137 6.83689 17.0357 6.80477 17.0681L6.03477 17.8381C5.97978 17.893 5.93641 17.9585 5.90725 18.0306C5.8781 18.1026 5.86374 18.1798 5.86505 18.2576C5.86635 18.3353 5.88329 18.412 5.91486 18.483C5.94642 18.554 5.99196 18.618 6.04877 18.6711L7.15302 19.7858C7.29003 19.9226 7.4757 19.9994 7.66927 19.9993H8.06914C8.30014 19.9993 8.48739 20.1875 8.48739 20.4185V21.3311C8.48739 21.3861 8.47655 21.4405 8.45547 21.4913C8.4344 21.5421 8.40351 21.5883 8.36458 21.6271C8.32565 21.666 8.27944 21.6968 8.2286 21.7178C8.17775 21.7387 8.12327 21.7495 8.06827 21.7493H7.66927C7.34374 21.7503 7.02127 21.6866 6.72056 21.5619C6.41985 21.4372 6.14689 21.2541 5.91752 21.0231L4.82814 19.9241C4.38061 19.4823 4.12559 18.8817 4.11852 18.2528C4.11711 17.9461 4.17664 17.6421 4.29365 17.3585C4.41066 17.0749 4.58282 16.8174 4.80014 16.6008L5.36102 16.0382C5.40065 15.9983 5.42424 15.9453 5.4273 15.8891C5.43037 15.833 5.4127 15.7777 5.37764 15.7337C4.89231 15.1239 4.58036 14.3945 4.47464 13.6223L3.50339 6.58296C3.498 6.54383 3.48376 6.50645 3.46175 6.47365C3.43974 6.44085 3.41054 6.4135 3.37638 6.39368C3.34222 6.37385 3.30398 6.36208 3.26459 6.35925C3.22519 6.35642 3.18567 6.3626 3.14902 6.37734L1.89952 6.88134L0.785645 4.87758L2.16639 3.38133H1.46027C1.42935 3.38118 1.39883 3.37438 1.37079 3.36137C1.34274 3.34837 1.31782 3.32948 1.29773 3.30598C1.27764 3.28248 1.26284 3.25493 1.25435 3.22521C1.24586 3.19548 1.24387 3.16427 1.24852 3.13371C1.30774 2.71514 1.51603 2.332 1.83512 2.0547C2.15421 1.77741 2.56265 1.62459 2.98539 1.62433H3.61539V0.985585C3.61551 0.943303 3.62698 0.901828 3.64859 0.865487C3.6702 0.829146 3.70117 0.799272 3.73827 0.778981C3.77537 0.75869 3.81723 0.748727 3.85949 0.75013C3.90174 0.751534 3.94285 0.764253 3.97852 0.78696L5.09327 1.62171H9.66689C9.87252 1.62171 10.0396 1.78883 10.0396 1.99533C10.0396 2.57546 9.73777 3.08383 9.28277 3.37346H11.6173C11.8273 3.37346 11.9979 3.54496 11.9979 3.75496C11.9985 4.19946 11.8888 4.63716 11.6787 5.02885C11.4686 5.42055 11.1646 5.754 10.7939 5.99933H13.0531C13.2526 5.99933 13.4136 6.16121 13.4136 6.36071C13.4143 6.99865 13.241 7.62469 12.9125 8.17153C12.5839 8.71837 12.1125 9.16533 11.549 9.46433C11.6995 9.48709 11.8535 9.49934 12.0093 9.49934H12.0084ZM3.68714 4.73321C3.80318 4.73321 3.91446 4.68712 3.9965 4.60507C4.07855 4.52302 4.12464 4.41174 4.12464 4.29571V3.81183C4.12729 3.75279 4.11794 3.69383 4.09717 3.6385C4.07639 3.58317 4.04463 3.53262 4.00378 3.48991C3.96294 3.4472 3.91386 3.4132 3.85951 3.38997C3.80517 3.36675 3.74668 3.35477 3.68758 3.35477C3.62848 3.35477 3.56999 3.36675 3.51565 3.38997C3.4613 3.4132 3.41223 3.4472 3.37138 3.48991C3.33054 3.53262 3.29877 3.58317 3.278 3.6385C3.25722 3.69383 3.24788 3.75279 3.25052 3.81183V4.29658C3.25052 4.41262 3.29661 4.5239 3.37866 4.60594C3.46071 4.68799 3.57199 4.73408 3.68802 4.73408L3.68714 4.73321Z" fill="#141414"/>
</svg>
