<svg width="24" height="24" viewBox="0 0 24 24" fill="none" xmlns="http://www.w3.org/2000/svg">
<path d="M5.05898 19.7218C4.80621 19.7218 4.59718 19.6424 4.4319 19.4836C4.26662 19.3248 4.18398 19.124 4.18398 18.8811V11.0345C4.18398 10.8103 4.27148 10.6188 4.44648 10.46C4.62148 10.3012 4.82565 10.2218 5.05898 10.2218C5.31176 10.2218 5.52079 10.3012 5.68607 10.46C5.85135 10.6188 5.93398 10.8196 5.93398 11.0625V18.9091C5.93398 19.1333 5.84648 19.3248 5.67148 19.4836C5.49648 19.6424 5.29232 19.7218 5.05898 19.7218ZM12.1173 19.7218C11.8645 19.7218 11.6555 19.6424 11.4902 19.4836C11.325 19.3248 11.2423 19.124 11.2423 18.8811V11.0345C11.2423 10.8103 11.3298 10.6188 11.5048 10.46C11.6798 10.3012 11.884 10.2218 12.1173 10.2218C12.3701 10.2218 12.5791 10.3012 12.7444 10.46C12.9097 10.6188 12.9923 10.8196 12.9923 11.0625V18.9091C12.9923 19.1333 12.9048 19.3248 12.7298 19.4836C12.5548 19.6424 12.3507 19.7218 12.1173 19.7218ZM1.17982 23.0846C0.946484 23.0846 0.747179 23.0006 0.581901 22.8324C0.416623 22.6643 0.333984 22.4681 0.333984 22.2439C0.333984 22.0011 0.416623 21.8002 0.581901 21.6414C0.747179 21.4826 0.956207 21.4032 1.20898 21.4032H22.8215C23.0548 21.4032 23.2541 21.4873 23.4194 21.6554C23.5847 21.8236 23.6673 22.0197 23.6673 22.2439C23.6673 22.4868 23.5847 22.6876 23.4194 22.8464C23.2541 23.0052 23.0451 23.0846 22.7923 23.0846H1.17982ZM18.9423 19.7218C18.6895 19.7218 18.4805 19.6424 18.3152 19.4836C18.15 19.3248 18.0673 19.124 18.0673 18.8811V11.0345C18.0673 10.8103 18.1548 10.6188 18.3298 10.46C18.5048 10.3012 18.709 10.2218 18.9423 10.2218C19.1951 10.2218 19.4041 10.3012 19.5694 10.46C19.7347 10.6188 19.8173 10.8196 19.8173 11.0625V18.9091C19.8173 19.1333 19.7298 19.3248 19.5548 19.4836C19.3798 19.6424 19.1757 19.7218 18.9423 19.7218ZM12.8757 1.14216L23.0257 6.69083C23.2201 6.78424 23.3757 6.91969 23.4923 7.09717C23.609 7.27466 23.6673 7.46615 23.6673 7.67166C23.6673 7.93321 23.5604 8.14339 23.3465 8.30219C23.1326 8.46099 22.8895 8.54039 22.6173 8.54039H1.38398C1.11176 8.54039 0.868707 8.46099 0.654818 8.30219C0.440929 8.14339 0.333984 7.93321 0.333984 7.67166C0.333984 7.46615 0.397179 7.27933 0.523568 7.11118C0.649956 6.94304 0.810373 6.80292 1.00482 6.69083L11.1257 1.14216C11.3979 0.992698 11.6895 0.917969 12.0007 0.917969C12.3118 0.917969 12.6034 0.992698 12.8757 1.14216ZM4.24232 6.85897H19.759H4.24232ZM4.24232 6.85897H19.759L12.0007 2.59938L4.24232 6.85897Z" fill="#141414"/>
</svg>
