<svg width="40" height="40" viewBox="0 0 40 40" fill="none" xmlns="http://www.w3.org/2000/svg">
<circle cx="20" cy="20" r="20" fill="#F8F9FA"/>
<path d="M12.7296 27.2704C12.5765 27.1173 12.5 26.9388 12.5 26.7347C12.5 26.5306 12.5765 26.352 12.7296 26.199L24.898 14.0306H18.1633C17.9422 14.0306 17.7594 13.9583 17.6148 13.8138C17.4702 13.6692 17.398 13.4864 17.398 13.2653C17.398 13.0442 17.4702 12.8614 17.6148 12.7168C17.7594 12.5723 17.9422 12.5 18.1633 12.5H26.7347C26.9558 12.5 27.1386 12.5723 27.2832 12.7168C27.4277 12.8614 27.5 13.0442 27.5 13.2653V21.8367C27.5 22.0578 27.4277 22.2406 27.2832 22.3852C27.1386 22.5298 26.9558 22.602 26.7347 22.602C26.5136 22.602 26.3308 22.5298 26.1862 22.3852C26.0417 22.2406 25.9694 22.0578 25.9694 21.8367V15.102L13.801 27.2704C13.648 27.4235 13.4694 27.5 13.2653 27.5C13.0612 27.5 12.8827 27.4235 12.7296 27.2704V27.2704Z" fill="#141414"/>
</svg>
