<svg width="18" height="18" viewBox="0 0 18 20" fill="none" xmlns="http://www.w3.org/2000/svg">
<path d="M15.154 20C14.3717 20 13.7018 19.7208 13.1442 19.1625C12.5867 18.6042 12.3079 17.9333 12.3079 17.15C12.3079 17.0333 12.3204 16.8958 12.3454 16.7375C12.3703 16.5792 12.4078 16.4333 12.4577 16.3L4.8932 11.9C4.64355 12.1833 4.33564 12.4125 3.96949 12.5875C3.60333 12.7625 3.22885 12.85 2.84605 12.85C2.0638 12.85 1.3939 12.5708 0.836339 12.0125C0.27878 11.4542 0 10.7833 0 10C0 9.2 0.27878 8.525 0.836339 7.975C1.3939 7.425 2.0638 7.15 2.84605 7.15C3.22885 7.15 3.59501 7.225 3.94452 7.375C4.29404 7.525 4.61026 7.74167 4.8932 8.025L12.4577 3.675C12.4078 3.55833 12.3703 3.425 12.3454 3.275C12.3204 3.125 12.3079 2.98333 12.3079 2.85C12.3079 2.05 12.5867 1.375 13.1442 0.825C13.7018 0.275 14.3717 0 15.154 0C15.9528 0 16.6269 0.275 17.1761 0.825C17.7254 1.375 18 2.05 18 2.85C18 3.63333 17.7254 4.30417 17.1761 4.8625C16.6269 5.42083 15.9528 5.7 15.154 5.7C14.7712 5.7 14.4008 5.6375 14.043 5.5125C13.6852 5.3875 13.3814 5.18333 13.1318 4.9L5.56727 9.1C5.60055 9.23333 5.62968 9.3875 5.65465 9.5625C5.67961 9.7375 5.69209 9.88333 5.69209 10C5.69209 10.1167 5.67961 10.2417 5.65465 10.375C5.62968 10.5083 5.60055 10.6417 5.56727 10.775L13.1318 15.075C13.3814 14.8417 13.6727 14.6542 14.0055 14.5125C14.3384 14.3708 14.7212 14.3 15.154 14.3C15.9528 14.3 16.6269 14.575 17.1761 15.125C17.7254 15.675 18 16.35 18 17.15C18 17.9333 17.7254 18.6042 17.1761 19.1625C16.6269 19.7208 15.9528 20 15.154 20ZM15.154 4.2C15.5368 4.2 15.8571 4.07083 16.1151 3.8125C16.3731 3.55417 16.5021 3.23333 16.5021 2.85C16.5021 2.46667 16.3731 2.14583 16.1151 1.8875C15.8571 1.62917 15.5368 1.5 15.154 1.5C14.7712 1.5 14.4508 1.62917 14.1928 1.8875C13.9348 2.14583 13.8058 2.46667 13.8058 2.85C13.8058 3.23333 13.9348 3.55417 14.1928 3.8125C14.4508 4.07083 14.7712 4.2 15.154 4.2ZM2.84605 11.35C3.22885 11.35 3.54924 11.2208 3.80721 10.9625C4.06519 10.7042 4.19417 10.3833 4.19417 10C4.19417 9.61667 4.06519 9.29583 3.80721 9.0375C3.54924 8.77917 3.22885 8.65 2.84605 8.65C2.46325 8.65 2.14286 8.77917 1.88488 9.0375C1.62691 9.29583 1.49792 9.61667 1.49792 10C1.49792 10.3833 1.62691 10.7042 1.88488 10.9625C2.14286 11.2208 2.46325 11.35 2.84605 11.35ZM15.154 18.5C15.5368 18.5 15.8571 18.3708 16.1151 18.1125C16.3731 17.8542 16.5021 17.5333 16.5021 17.15C16.5021 16.7667 16.3731 16.4458 16.1151 16.1875C15.8571 15.9292 15.5368 15.8 15.154 15.8C14.7712 15.8 14.4508 15.9292 14.1928 16.1875C13.9348 16.4458 13.8058 16.7667 13.8058 17.15C13.8058 17.5333 13.9348 17.8542 14.1928 18.1125C14.4508 18.3708 14.7712 18.5 15.154 18.5Z" fill="#141414"/>
</svg>
