<svg width="21" height="19" viewBox="0 0 21 19" fill="none" xmlns="http://www.w3.org/2000/svg">
<path d="M3.75 18.025C2.7 18.025 1.8125 17.6625 1.0875 16.9375C0.3625 16.2125 0 15.325 0 14.275C0 13.225 0.3625 12.3375 1.0875 11.6125C1.8125 10.8875 2.7 10.525 3.75 10.525C4.8 10.525 5.6875 10.8875 6.4125 11.6125C7.1375 12.3375 7.5 13.225 7.5 14.275C7.5 15.325 7.1375 16.2125 6.4125 16.9375C5.6875 17.6625 4.8 18.025 3.75 18.025ZM16.275 18.025C15.225 18.025 14.3375 17.6625 13.6125 16.9375C12.8875 16.2125 12.525 15.325 12.525 14.275C12.525 13.225 12.8875 12.3375 13.6125 11.6125C14.3375 10.8875 15.225 10.525 16.275 10.525C17.325 10.525 18.2125 10.8875 18.9375 11.6125C19.6625 12.3375 20.025 13.225 20.025 14.275C20.025 15.325 19.6625 16.2125 18.9375 16.9375C18.2125 17.6625 17.325 18.025 16.275 18.025ZM3.75 16.525C4.36667 16.525 4.89583 16.3042 5.3375 15.8625C5.77917 15.4208 6 14.8917 6 14.275C6 13.6583 5.77917 13.1292 5.3375 12.6875C4.89583 12.2458 4.36667 12.025 3.75 12.025C3.13333 12.025 2.60417 12.2458 2.1625 12.6875C1.72083 13.1292 1.5 13.6583 1.5 14.275C1.5 14.8917 1.72083 15.4208 2.1625 15.8625C2.60417 16.3042 3.13333 16.525 3.75 16.525ZM16.275 16.525C16.8917 16.525 17.4208 16.3042 17.8625 15.8625C18.3042 15.4208 18.525 14.8917 18.525 14.275C18.525 13.6583 18.3042 13.1292 17.8625 12.6875C17.4208 12.2458 16.8917 12.025 16.275 12.025C15.6583 12.025 15.1292 12.2458 14.6875 12.6875C14.2458 13.1292 14.025 13.6583 14.025 14.275C14.025 14.8917 14.2458 15.4208 14.6875 15.8625C15.1292 16.3042 15.6583 16.525 16.275 16.525ZM10.025 7.5C8.975 7.5 8.0875 7.1375 7.3625 6.4125C6.6375 5.6875 6.275 4.8 6.275 3.75C6.275 2.7 6.6375 1.8125 7.3625 1.0875C8.0875 0.3625 8.975 0 10.025 0C11.075 0 11.9625 0.3625 12.6875 1.0875C13.4125 1.8125 13.775 2.7 13.775 3.75C13.775 4.8 13.4125 5.6875 12.6875 6.4125C11.9625 7.1375 11.075 7.5 10.025 7.5ZM10.025 6C10.6417 6 11.1708 5.77917 11.6125 5.3375C12.0542 4.89583 12.275 4.36667 12.275 3.75C12.275 3.13333 12.0542 2.60417 11.6125 2.1625C11.1708 1.72083 10.6417 1.5 10.025 1.5C9.40833 1.5 8.87917 1.72083 8.4375 2.1625C7.99583 2.60417 7.775 3.13333 7.775 3.75C7.775 4.36667 7.99583 4.89583 8.4375 5.3375C8.87917 5.77917 9.40833 6 10.025 6Z" fill="#A5A8AC"/>
</svg>
